<svg xmlns="http://www.w3.org/2000/svg" fill="none" viewBox="0 0 16 16">
    <path fill="#069" d="M0 1.146C0 .514.53 0 1.183 0h13.635C15.47 0 16 .513 16 1.146v13.708c0 .633-.53 1.146-1.182 1.146H1.182C.53 16 0 15.487 0 14.854V1.146Z"/>
    <path fill="#fff" d="M4.843 13.336V6.162H2.458v7.174h2.385ZM3.65 5.183c.832 0 1.35-.551 1.35-1.24-.016-.704-.518-1.24-1.333-1.24-.816 0-1.35.536-1.35 1.24 0 .689.518 1.24 1.318 1.24h.016Zm2.512 8.153h2.384V9.33c0-.214.016-.429.079-.582.172-.428.564-.872 1.223-.872.863 0 1.208.658 1.208 1.623v3.837h2.385V9.223c0-2.204-1.177-3.23-2.745-3.23-1.287 0-1.852.72-2.165 1.21h.015v-1.04H6.163c.031.672 0 7.174 0 7.174Z"/>
</svg>
