<svg xmlns="http://www.w3.org/2000/svg" fill="none" viewBox="0 0 16 16">
    <path fill="url(#a)" d="M16 8c0 4.42-3.58 8-8 8s-8-3.58-8-8 3.58-8 8-8 8 3.58 8 8Z"/>
    <path fill="#C8DAEA" d="M6.533 11.667c-.26 0-.213-.1-.306-.347l-.76-2.507 4.72-2.946.553.146-.46 1.254-3.747 4.4Z"/>
    <path fill="#A9C9DD" d="M6.533 11.667c.2 0 .287-.094.4-.2.174-.167 2.4-2.334 2.4-2.334L7.967 8.8 6.7 9.6l-.167 2v.067Z"/>
    <path fill="url(#b)" d="m6.667 9.627 3.226 2.38c.367.2.634.1.727-.34l1.313-6.187c.134-.54-.206-.78-.56-.62L3.667 7.833c-.527.214-.52.507-.094.634l1.98.62 4.58-2.887c.214-.133.414-.06.254.087l-3.72 3.34Z"/>
    <defs>
        <linearGradient id="a" x1="10.345" x2="6.345" y1="2.529" y2="11.862" gradientUnits="userSpaceOnUse">
            <stop stop-color="#37AEE2"/>
            <stop offset="1" stop-color="#1E96C8"/>
        </linearGradient>
        <linearGradient id="b" x1="8.599" x2="10.266" y1="8.25" y2="10.917" gradientUnits="userSpaceOnUse">
            <stop stop-color="#EFF7FC"/>
            <stop offset="1" stop-color="#fff"/>
        </linearGradient>
    </defs>
</svg>
